<?xml version="1.0" encoding="utf-8"?>
<!-- Generator: Adobe Illustrator 27.8.0, SVG Export Plug-In . SVG Version: 6.00 Build 0)  -->
<svg version="1.1" xmlns="http://www.w3.org/2000/svg" xmlns:xlink="http://www.w3.org/1999/xlink" x="0px" y="0px"
	 viewBox="0 0 595.43 400.96" style="enable-background:new 0 0 595.43 400.96;" xml:space="preserve">
<style type="text/css">
	.st0{fill:#231F20;}
</style>
<g id="BG">
</g>
<g id="graphics">
	<g>
		<g>
			<path class="st0" d="M216.36,346.46v15.71h-2.14v-15.71h-2.99v-1.8h2.99v-1.6c0-0.75,0.06-1.44,0.17-2.07
				c0.11-0.63,0.33-1.18,0.64-1.63c0.32-0.45,0.75-0.8,1.31-1.05c0.55-0.25,1.26-0.37,2.12-0.37c0.32,0,0.61,0.01,0.88,0.03
				c0.27,0.02,0.58,0.06,0.92,0.1v1.83c-0.29-0.05-0.57-0.08-0.82-0.12c-0.25-0.03-0.5-0.05-0.75-0.05c-0.59,0-1.04,0.09-1.36,0.27
				c-0.32,0.18-0.55,0.42-0.7,0.73c-0.15,0.31-0.23,0.66-0.25,1.07c-0.02,0.41-0.03,0.85-0.03,1.32v1.53h3.46v1.8H216.36z"/>
			<path class="st0" d="M239.16,362.17v-3.16h-0.07c-0.57,1.18-1.39,2.08-2.46,2.7c-1.07,0.62-2.27,0.93-3.58,0.93
				c-1.11,0-2.05-0.15-2.83-0.46c-0.78-0.3-1.41-0.74-1.9-1.31c-0.49-0.56-0.84-1.26-1.07-2.07c-0.23-0.82-0.34-1.74-0.34-2.78
				v-11.37h2.14v11.4c0.05,1.59,0.41,2.78,1.1,3.6c0.69,0.82,1.88,1.22,3.58,1.22c0.93,0,1.72-0.2,2.38-0.59
				c0.66-0.4,1.2-0.92,1.63-1.58c0.43-0.66,0.75-1.41,0.95-2.26c0.2-0.85,0.31-1.71,0.31-2.6v-9.2h2.14v17.51H239.16z"/>
			<path class="st0" d="M252.37,344.66v3.02h0.07c0.41-1.06,1.13-1.92,2.17-2.56c1.04-0.64,2.18-0.97,3.43-0.97
				c1.22,0,2.24,0.16,3.07,0.48c0.82,0.32,1.49,0.76,1.98,1.34c0.5,0.58,0.85,1.28,1.05,2.12c0.2,0.84,0.31,1.78,0.31,2.82v11.27
				h-2.14v-10.93c0-0.75-0.07-1.44-0.2-2.09c-0.13-0.65-0.37-1.21-0.71-1.68c-0.34-0.48-0.8-0.85-1.37-1.12
				c-0.58-0.27-1.3-0.41-2.16-0.41c-0.86,0-1.62,0.15-2.29,0.46c-0.67,0.31-1.23,0.73-1.7,1.26c-0.46,0.53-0.83,1.17-1.09,1.9
				c-0.26,0.74-0.4,1.53-0.42,2.39v10.22h-2.14v-17.51H252.37z"/>
			<path class="st0" d="M275.68,344.66v3.02h0.07c0.41-1.06,1.13-1.92,2.17-2.56c1.04-0.64,2.18-0.97,3.43-0.97
				c1.22,0,2.24,0.16,3.07,0.48c0.82,0.32,1.49,0.76,1.98,1.34c0.5,0.58,0.85,1.28,1.05,2.12c0.2,0.84,0.31,1.78,0.31,2.82v11.27
				h-2.14v-10.93c0-0.75-0.07-1.44-0.2-2.09c-0.13-0.65-0.37-1.21-0.71-1.68c-0.34-0.48-0.8-0.85-1.37-1.12
				c-0.58-0.27-1.3-0.41-2.16-0.41c-0.86,0-1.62,0.15-2.29,0.46c-0.67,0.31-1.23,0.73-1.7,1.26c-0.46,0.53-0.83,1.17-1.09,1.9
				c-0.26,0.74-0.4,1.53-0.42,2.39v10.22h-2.14v-17.51H275.68z"/>
			<path class="st0" d="M297.2,344.66l5.77,14.93l5.4-14.93h2.14l-7.6,20.16c-0.32,0.75-0.61,1.36-0.88,1.85
				c-0.27,0.49-0.57,0.87-0.9,1.15c-0.33,0.28-0.71,0.49-1.15,0.61c-0.44,0.12-1,0.19-1.68,0.19c-0.43-0.02-0.76-0.04-1-0.05
				c-0.24-0.01-0.45-0.05-0.63-0.12v-1.8c0.25,0.04,0.49,0.08,0.73,0.12c0.24,0.03,0.48,0.05,0.73,0.05c0.47,0,0.87-0.07,1.17-0.21
				c0.31-0.14,0.57-0.32,0.8-0.56c0.23-0.24,0.42-0.53,0.58-0.87c0.16-0.34,0.33-0.71,0.51-1.12l0.75-1.97l-6.99-17.45H297.2z"/>
			<path class="st0" d="M334.39,337.94v24.23h-2.14v-24.23H334.39z"/>
			<path class="st0" d="M344.03,347.37c0.36-0.75,0.85-1.35,1.48-1.83c0.62-0.47,1.35-0.82,2.19-1.05c0.84-0.23,1.77-0.34,2.78-0.34
				c0.77,0,1.54,0.07,2.31,0.22c0.77,0.15,1.46,0.42,2.07,0.83c0.61,0.41,1.11,0.98,1.49,1.71c0.38,0.74,0.58,1.69,0.58,2.87v9.3
				c0,0.86,0.42,1.29,1.26,1.29c0.25,0,0.47-0.04,0.68-0.14v1.8c-0.25,0.05-0.47,0.08-0.66,0.1c-0.19,0.02-0.43,0.03-0.73,0.03
				c-0.54,0-0.98-0.07-1.31-0.22c-0.33-0.15-0.58-0.36-0.76-0.63c-0.18-0.27-0.3-0.59-0.36-0.97c-0.06-0.37-0.08-0.79-0.08-1.24
				h-0.07c-0.39,0.57-0.78,1.07-1.17,1.51c-0.4,0.44-0.84,0.81-1.32,1.1c-0.49,0.29-1.04,0.52-1.66,0.68
				c-0.62,0.16-1.36,0.24-2.22,0.24c-0.81,0-1.58-0.1-2.29-0.29c-0.71-0.19-1.34-0.5-1.87-0.92c-0.53-0.42-0.95-0.95-1.26-1.6
				c-0.31-0.64-0.46-1.41-0.46-2.29c0-1.22,0.27-2.18,0.81-2.87c0.54-0.69,1.26-1.22,2.15-1.58c0.89-0.36,1.9-0.62,3.02-0.76
				c1.12-0.15,2.26-0.29,3.41-0.42c0.45-0.04,0.85-0.1,1.19-0.17c0.34-0.07,0.62-0.19,0.85-0.36c0.23-0.17,0.4-0.4,0.53-0.7
				c0.12-0.29,0.19-0.68,0.19-1.15c0-0.73-0.12-1.32-0.36-1.78c-0.24-0.46-0.57-0.83-0.98-1.1c-0.42-0.27-0.91-0.46-1.46-0.56
				c-0.56-0.1-1.15-0.15-1.78-0.15c-1.36,0-2.47,0.32-3.32,0.97c-0.86,0.65-1.31,1.68-1.36,3.11h-2.14
				C343.46,349,343.67,348.12,344.03,347.37z M354.72,352.6c-0.14,0.25-0.39,0.43-0.78,0.54c-0.39,0.11-0.73,0.19-1.02,0.24
				c-0.91,0.16-1.84,0.3-2.8,0.42c-0.96,0.12-1.84,0.31-2.63,0.56c-0.79,0.25-1.44,0.61-1.95,1.07c-0.51,0.46-0.76,1.13-0.76,1.98
				c0,0.54,0.11,1.02,0.32,1.44c0.21,0.42,0.5,0.78,0.87,1.09c0.36,0.31,0.78,0.54,1.25,0.7c0.48,0.16,0.96,0.24,1.46,0.24
				c0.82,0,1.6-0.12,2.34-0.37c0.75-0.25,1.4-0.61,1.95-1.09c0.55-0.47,1-1.05,1.32-1.73c0.33-0.68,0.49-1.45,0.49-2.31v-2.78
				H354.72z"/>
			<path class="st0" d="M379.4,360.37v1.8h-14.63v-1.73l11.44-13.98h-10.66v-1.8h13.37v1.53l-11.57,14.19H379.4z"/>
			<path class="st0" d="M387.41,344.66l5.77,14.93l5.4-14.93h2.14l-7.6,20.16c-0.32,0.75-0.61,1.36-0.88,1.85
				c-0.27,0.49-0.57,0.87-0.9,1.15c-0.33,0.28-0.71,0.49-1.15,0.61c-0.44,0.12-1,0.19-1.68,0.19c-0.43-0.02-0.76-0.04-1-0.05
				c-0.24-0.01-0.45-0.05-0.63-0.12v-1.8c0.25,0.04,0.49,0.08,0.73,0.12c0.24,0.03,0.48,0.05,0.73,0.05c0.47,0,0.86-0.07,1.17-0.21
				c0.31-0.14,0.57-0.32,0.8-0.56c0.23-0.24,0.42-0.53,0.58-0.87c0.16-0.34,0.33-0.71,0.51-1.12l0.75-1.97l-6.99-17.45H387.41z"/>
		</g>
		<g>
			<path class="st0" d="M397.98,160.42c5.19-3.61,6.3-8.81,3.94-14.2c-3.37-7.71-13.07-14.2-24.22-12.81
				c-14.5,1.81-20.68,11.74-23.31,19.3c-5.47,15.72,5.7,36.45,25.18,28.37C388.45,177.4,384.94,169.49,397.98,160.42z"/>
			<path class="st0" d="M415.59,172.34c-4.01,5.53,8.18,16.08,12.28,10.9c5.03-6.35,6.93-15.77-1.1-15.74
				C426.77,167.51,418.87,167.81,415.59,172.34z"/>
			<path class="st0" d="M438.04,163.5c-5-7.84-11.25-9.06-13.2-10c-0.67-24.87-14.3-46.25-34.1-58.22
				c2.04-9.77-4.1-23.35-20.12-22.13c-9.81,0.74-15.39,6.13-18.91,11.95c-1.56,0.05-3.13,0.16-4.69,0.32
				c-3.63-9.23-13.25-12.65-23.16-5.73c-17.52-17.44-41.54-27.54-66.59-27.54c-28.17,0-54.81,12.15-73.18,34.51
				c-4.3-3.93-10.9-7.01-19.18-1.59c-14.04,9.2-9.24,29.39,2.13,33.15c-2.61,8.46-4,17.3-4.09,26.31
				c-2.93,5.46-5.08,12.89-5.53,23.12c-1.03,23.4,6.58,67.38,50.4,68.99c9.56,0.35,17.97-0.96,24.93-3.87
				c12.08,0.01,58.12,0.03,74.56,0.03c6.79,2.42,14.42,3.75,22.96,3.75c27.23,0,46.16,2.05,51.75-12.66
				c9.39-1.6,22.66-5.21,34.84-13.38c17.36-0.64,29.68-1.78,35.5-10.13C459.5,190.12,455.31,170.05,438.04,163.5z M231.45,226.77
				c-12.29,6.22-22.4,6.16-26.65,0.33c-5.76-7.91,0.96-22.8,15.71-31.02c12.07-6.73,20.36-5.22,24.28-1.03
				C252.77,203.58,246.42,219.18,231.45,226.77z M435.62,180.43c-2.64,10.61-11.59,17.91-16.59,21.46
				c-12.31,8.73-25.58,14.01-35.71,16c0.88-11.58-6.51-25.73-23.24-28.71c-14.68-2.62-20.96-0.62-36.59-3.06
				c-11.78-1.84-28.39-14.88-31.85-36.2c-2.36-14.57-1.58-23.71-9.47-25.26c-11.99-2.36-19.22,20.91-18.02,38.08
				c1.92,27.54,11.92,51.75,31.64,64.43c-16.42,0-40.67-0.01-53.64-0.01c16.29-13.25,16.25-35.7,7.23-47.38
				c-7.92-10.27-20.01-9.19-28.7-6.52c-2.79-9.09-5.21-17.84-6.19-21.95c-5.08-21.24-29.13-30.09-45.46-14.77
				c4.43-43.07,41.11-78.77,88.24-78.77c23.48,0,46,9.44,62.46,25.74c-5.23,6.48-5.16,14.96-5.14,20.45
				c0.07,16.45,14.48,17.6,18.93,10.19c5.27-8.76,2.49-6.05,11.57-14.65c2.24-2.12,3.2-5.25,3.09-8.54
				c29-2.59,54.85,14.03,65.67,38.64c2.03,6.84-3.04,10.75-2.5,18.51c0.39,5.58,4.41,7.68,10.3,10.06c0.93,0.51,2.03,0.99,3.36,1.45
				C432.98,162.37,437.59,172.49,435.62,180.43z"/>
		</g>
		<g>
			<g>
				<path class="st0" d="M191.6,335.49c0,1.81-0.65,3.36-1.94,4.65c-1.29,1.29-2.84,1.94-4.65,1.94h-6.59v-48.26
					c0-9.04,2.65-15.22,7.95-18.51c5.3-3.29,11.05-4.94,17.25-4.94c3.23,0,6.49,0.61,9.79,1.84c3.29,1.23,5.91,3,7.85,5.33
					c3.88,5.04,5.81,11.5,5.81,19.38c0,8.14-1.94,14.73-5.81,19.77c-3.88,4.91-8.85,7.37-14.92,7.37c-3.23,0-6.08-0.58-8.53-1.74
					c-2.59-1.29-4.65-3.29-6.2-6.01V335.49z M213.7,297.5c0-5.04-0.97-8.92-2.91-11.63c-1.94-2.71-4.72-4.07-8.33-4.07
					c-3.49,0-6.2,1.36-8.14,4.07c-1.81,2.46-2.71,6.33-2.71,11.63c0,4.91,0.97,8.59,2.91,11.05c1.94,2.71,4.72,4.07,8.33,4.07
					c3.36,0,6.01-1.36,7.95-4.07C212.73,305.84,213.7,302.15,213.7,297.5z"/>
				<path class="st0" d="M266.55,320.96c-2.71,1.42-5.59,2.29-8.63,2.62c-3.04,0.32-5.72,0.48-8.04,0.48
					c-4.65,0-8.72-1.26-12.21-3.78c-3.49-2.52-5.23-6.69-5.23-12.5c0-5.43,1.58-9.3,4.75-11.63c3.16-2.33,7.2-3.88,12.11-4.65
					c0.65,0,1.42-0.1,2.33-0.29c0.9-0.19,1.94-0.35,3.1-0.48c5.68-0.78,8.53-2.45,8.53-5.04c0-1.94-1-3.2-3-3.78
					c-2.01-0.58-3.85-0.87-5.52-0.87c-1.81,0-3.43,0.26-4.85,0.78c-1.42,0.52-2.46,1.49-3.1,2.91h-12.99c0.51-4,2.33-7.3,5.43-9.88
					c3.49-2.97,8.46-4.46,14.92-4.46c7.23,0,12.66,1.23,16.28,3.68c3.75,2.59,5.62,6.2,5.62,10.85v17.64
					c0,5.17-0.94,9.21-2.81,12.11C271.36,317.56,269.13,319.66,266.55,320.96z M263.45,297.11c-1.81,0.91-4.33,1.74-7.56,2.52
					l-4.46,0.97c-2.33,0.65-4.01,1.49-5.04,2.52c-0.91,1.42-1.36,2.84-1.36,4.27c0,1.94,0.58,3.49,1.74,4.65
					c1.16,1.04,2.84,1.55,5.04,1.55c3.62,0,6.46-1.03,8.53-3.1c2.07-2.07,3.1-4.91,3.1-8.53V297.11z"/>
				<path class="st0" d="M328.41,323.09h-6.78c-1.94,0-3.52-0.61-4.75-1.84c-1.23-1.23-1.84-2.81-1.84-4.75v-26.36
					c0-3.1-0.94-5.36-2.81-6.78c-1.87-1.42-3.97-2.13-6.3-2.13c-2.33,0-4.39,0.71-6.2,2.13c-1.81,1.42-2.71,3.68-2.71,6.78v32.95
					h-13.57v-30.23c0-8.79,2.29-14.66,6.88-17.64c4.59-2.97,9.66-4.59,15.22-4.85c5.68,0,10.92,1.49,15.7,4.46
					c4.78,2.97,7.17,8.98,7.17,18.03V323.09z"/>
				<path class="st0" d="M370.11,256.22h6.59c1.81,0,3.36,0.68,4.65,2.03c1.29,1.36,1.94,2.88,1.94,4.56v37.79
					c0,9.18-2.65,15.38-7.95,18.61c-5.3,3.23-11.05,4.85-17.25,4.85c-3.36,0-6.66-0.55-9.89-1.65c-3.23-1.1-5.81-2.87-7.75-5.33
					c-3.75-4.78-5.62-11.3-5.62-19.57c0-8.14,1.87-14.66,5.62-19.58c3.88-5.04,8.85-7.56,14.92-7.56c3.23,0,6.07,0.65,8.53,1.94
					c2.58,1.55,4.65,3.55,6.2,6.01V256.22z M348.02,296.92c0,5.17,0.97,9.11,2.91,11.82c1.94,2.71,4.71,4.07,8.33,4.07
					c3.49,0,6.2-1.36,8.14-4.07c1.81-2.71,2.71-6.65,2.71-11.82c0-4.65-0.97-8.33-2.91-11.05c-2.07-2.58-4.85-3.88-8.33-3.88
					c-3.36,0-6.01,1.36-7.95,4.07C348.99,288.65,348.02,292.27,348.02,296.92z"/>
				<path class="st0" d="M424.03,320.96c-2.71,1.42-5.59,2.29-8.63,2.62c-3.04,0.32-5.72,0.48-8.04,0.48
					c-4.65,0-8.72-1.26-12.21-3.78c-3.49-2.52-5.23-6.69-5.23-12.5c0-5.43,1.58-9.3,4.75-11.63c3.16-2.33,7.2-3.88,12.11-4.65
					c0.65,0,1.42-0.1,2.33-0.29c0.9-0.19,1.94-0.35,3.1-0.48c5.68-0.78,8.53-2.45,8.53-5.04c0-1.94-1-3.2-3.01-3.78
					c-2.01-0.58-3.85-0.87-5.52-0.87c-1.81,0-3.43,0.26-4.85,0.78c-1.42,0.52-2.46,1.49-3.1,2.91h-12.99c0.51-4,2.33-7.3,5.43-9.88
					c3.49-2.97,8.46-4.46,14.93-4.46c7.23,0,12.66,1.23,16.28,3.68c3.75,2.59,5.62,6.2,5.62,10.85v17.64
					c0,5.17-0.94,9.21-2.81,12.11C428.84,317.56,426.61,319.66,424.03,320.96z M420.92,297.11c-1.81,0.91-4.33,1.74-7.56,2.52
					l-4.46,0.97c-2.33,0.65-4.01,1.49-5.04,2.52c-0.91,1.42-1.36,2.84-1.36,4.27c0,1.94,0.58,3.49,1.74,4.65
					c1.16,1.04,2.84,1.55,5.04,1.55c3.62,0,6.46-1.03,8.53-3.1c2.06-2.07,3.1-4.91,3.1-8.53V297.11z"/>
			</g>
		</g>
	</g>
</g>
</svg>
